# xmcd
#
# Track frame offsets: 
#        150
#        13419
#        24240
#        35469
#        46034
#        56706
#        67825
#        78462
#        88755
#        99815
#        111919
#        123447
#        134775
#        148879
#        162531
#        175690
#        186396
#        197305
#        210369
#        222011
#        234540
#        243849
#        257143
#        268871
#        281494
#
# Disc length: 3906 seconds
#
# Revision: 0
# Processed by: cddbd v1.5.2PL0 Copyright (c) Steve Scherf et al.
# Submitted via: ExactAudioCopyFreeDBPlugin 1.0
#
DISCID=660f4019
DTITLE=Jerry Wallace - The Complete Original Hits 1954-1964
DYEAR=2016
DGENRE=Crossover
TTITLE0=Little Miss One
TTITLE1=Blue-Jean Baby
TTITLE2=How The Time Flies
TTITLE3=Diamond Ring
TTITLE4=A Touch Of Pink
TTITLE5=Primrose Lane
TTITLE6=Little Coco Palm
TTITLE7=You're Singing Our Love Song To Somebody Else
TTITLE8=Swingin' Down The Lane
TTITLE9=There She Goes
TTITLE10=Angel On My Sholder
TTITLE11=Life's A Holiday
TTITLE12=Lonesome
TTITLE13=You'll Never Know
TTITLE14=Shutters and Boards
TTITLE15=Am I That Easy To Forget
TTITLE16=That's All I Want From You
TTITLE17=Just Walkin' In The Rain
TTITLE18=Auf Wiedersehen
TTITLE19=In The Misty Moonlight
TTITLE20=It's A Cotton Candy World
TTITLE21=Even The Bad Times Are Good
TTITLE22=Spanish Guitars
TTITLE23=Life's Gone and Slipped Away
TTITLE24=Release Me
EXTD=
EXTT0=
EXTT1=
EXTT2=
EXTT3=
EXTT4=
EXTT5=
EXTT6=
EXTT7=
EXTT8=
EXTT9=
EXTT10=
EXTT11=
EXTT12=
EXTT13=
EXTT14=
EXTT15=
EXTT16=
EXTT17=
EXTT18=
EXTT19=
EXTT20=
EXTT21=
EXTT22=
EXTT23=
EXTT24=
PLAYORDER=
